<?xml version="1.0" encoding="UTF-8" standalone="no"?>
<!-- Created with Inkscape (http://www.inkscape.org/) -->

<svg
   width="210mm"
   height="297mm"
   viewBox="0 0 210 297"
   version="1.1"
   id="svg5"
   inkscape:version="1.1 (c68e22c387, 2021-05-23)"
   sodipodi:docname="Logo Solaris.svg"
   xmlns:inkscape="http://www.inkscape.org/namespaces/inkscape"
   xmlns:sodipodi="http://sodipodi.sourceforge.net/DTD/sodipodi-0.dtd"
   xmlns="http://www.w3.org/2000/svg"
   xmlns:svg="http://www.w3.org/2000/svg">
  <sodipodi:namedview
     id="namedview7"
     pagecolor="#ffffff"
     bordercolor="#666666"
     borderopacity="1.0"
     inkscape:pageshadow="2"
     inkscape:pageopacity="0.0"
     inkscape:pagecheckerboard="0"
     inkscape:document-units="mm"
     showgrid="false"
     inkscape:zoom="0.35355339"
     inkscape:cx="415.77879"
     inkscape:cy="601.04076"
     inkscape:window-width="1366"
     inkscape:window-height="705"
     inkscape:window-x="-8"
     inkscape:window-y="-8"
     inkscape:window-maximized="1"
     inkscape:current-layer="layer1" />
  <defs
     id="defs2" />
  <g
     inkscape:label="Camada 1"
     inkscape:groupmode="layer"
     id="layer1">
    <g
       id="g70140"
       transform="translate(-2.9934187,8.2319014)">
      <circle
         style="fill:#ffd700;fill-opacity:1;fill-rule:evenodd;stroke:#ffd700;stroke-width:0.181284;stroke-miterlimit:4;stroke-dasharray:none;stroke-opacity:1"
         id="path846"
         cx="108.7068"
         cy="130.20279"
         r="46.852379" />
      <rect
         style="fill:#ffd700;fill-opacity:1;fill-rule:evenodd;stroke:#ffd700;stroke-width:0.2;stroke-miterlimit:4;stroke-dasharray:none;stroke-opacity:1"
         id="rect13976"
         width="19.789471"
         height="59.772278"
         x="98.139618"
         y="10.096668" />
      <rect
         style="fill:#ffd700;fill-opacity:1;fill-rule:evenodd;stroke:#ffd700;stroke-width:0.2;stroke-miterlimit:4;stroke-dasharray:none;stroke-opacity:1"
         id="rect13976-9"
         width="19.789471"
         height="59.772278"
         x="123.4976"
         y="-50.27523"
         transform="rotate(90.342979)" />
      <rect
         style="fill:#ffd700;fill-opacity:1;fill-rule:evenodd;stroke:#ffd700;stroke-width:0.2;stroke-miterlimit:4;stroke-dasharray:none;stroke-opacity:1"
         id="rect13976-1"
         width="19.789471"
         height="59.772278"
         x="-143.8381"
         y="166.92244"
         transform="rotate(-90.063737)" />
      <rect
         style="fill:#ffd700;fill-opacity:1;fill-rule:evenodd;stroke:#ffd700;stroke-width:0.2;stroke-miterlimit:4;stroke-dasharray:none;stroke-opacity:1"
         id="rect13976-4"
         width="19.789471"
         height="59.772278"
         x="14.709661"
         y="43.487869"
         transform="rotate(-31.397833)" />
      <rect
         style="fill:#ffd700;fill-opacity:1;fill-rule:evenodd;stroke:#ffd700;stroke-width:0.2;stroke-miterlimit:4;stroke-dasharray:none;stroke-opacity:1"
         id="rect13976-4-1"
         width="19.789471"
         height="59.772278"
         x="-168.79068"
         y="-68.511696"
         transform="matrix(-0.8535705,-0.52097735,-0.52097735,0.8535705,0,0)" />
      <rect
         style="fill:#ffd700;fill-opacity:1;fill-rule:evenodd;stroke:#ffd700;stroke-width:0.2;stroke-miterlimit:4;stroke-dasharray:none;stroke-opacity:1"
         id="rect13976-4-3"
         width="19.789471"
         height="59.772278"
         x="-78.971191"
         y="31.543449"
         transform="rotate(-66.440824)" />
      <rect
         style="fill:#ffd700;fill-opacity:1;fill-rule:evenodd;stroke:#ffd700;stroke-width:0.2;stroke-miterlimit:4;stroke-dasharray:none;stroke-opacity:1"
         id="rect13976-4-3-6"
         width="19.789471"
         height="59.772278"
         x="-165.67596"
         y="-167.302"
         transform="matrix(-0.39969601,-0.91664775,-0.91664775,0.39969601,0,0)" />
      <path
         style="fill:#ffd700;fill-opacity:1;stroke:#000000;stroke-width:0;stroke-linecap:butt;stroke-linejoin:miter;stroke-miterlimit:4;stroke-dasharray:none;stroke-opacity:1"
         d="m 83.19655,168.41244 c 4.091496,43.05096 -31.003178,35.75731 -33.924807,45.83887 -2.011705,7.11232 2.743554,31.58806 23.951564,41.1403 15.809998,6.66415 39.244323,7.16669 54.398593,5.91018 68.23899,-8.10941 -18.62187,-57.53733 36.348,-65.42641 l -1.2116,-3.12997 c -62.899094,12.46718 30.56518,55.43717 -36.34801,64.51771 -23.65551,1.28557 -40.350123,0.92385 -52.103665,-5.20725 -58.630219,-60.19949 12.818093,-21.95906 14.140193,-79.60477 z"
         id="path14818"
         sodipodi:nodetypes="cccccccccc" />
      <g
         id="g64870"
         transform="matrix(1.0908272,0,0,1.0908272,-4.0896957,-22.719146)">
        <rect
           style="fill:#143a83;fill-opacity:1;fill-rule:evenodd;stroke:#ffd700;stroke-width:0;stroke-miterlimit:4;stroke-dasharray:none;stroke-opacity:1"
           id="rect26942"
           width="104.6381"
           height="42.349075"
           x="-6.0224319"
           y="215.08846"
           transform="matrix(0.99999985,5.5048067e-4,0.23734246,0.97142604,0,0)" />
        <path
           style="fill:#ffffff;fill-opacity:1;stroke:#000000;stroke-width:0.3;stroke-linecap:butt;stroke-linejoin:miter;stroke-miterlimit:4;stroke-dasharray:none;stroke-opacity:1"
           d="m 62.665202,209.09909 2.28097,10.64803 -17.094191,0.04 0.564719,2.09008 16.999179,-0.10433 2.62633,12.2302 -16.759795,-0.14279 0.634096,2.57761 h 16.617007 l 2.737885,13.48201 2.488443,0.0183 -2.613297,-13.51808 15.12569,-0.29052 2.148232,13.80122 1.84887,0.006 -2.135226,-13.71685 15.525126,-0.37272 1.50874,14.10161 1.80092,-3.3e-4 -1.36109,-13.99228 15.43165,-0.57116 1.24895,14.57202 2.00434,0.007 -1.25548,-14.54196 15.974,-0.69233 1.85195,15.24671 1.93488,-0.0294 -2.14588,-15.30783 14.98015,-0.54287 -0.40206,-1.68711 -14.76394,0.54908 -2.03821,-12.59061 13.74843,-0.45208 -0.39114,-1.60782 -13.64287,0.30287 -1.42264,-9.46655 h -1.78777 l 1.17305,9.57653 -14.42164,0.15144 -1.2032,-9.73665 h -2.05803 l 1.12991,9.79187 -15.65255,0.21418 -1.16823,-10.01173 h -2.12874 l 1.31514,10.06098 -16.357694,0.28557 -1.492448,-10.36154 -2.190967,-0.004 1.654469,10.44231 -16.390765,0.14044 -2.289893,-10.59319 z"
           id="path28091"
           sodipodi:nodetypes="ccccccccccccccccccccccccccccccccccccccccccccccccccccc" />
        <path
           style="fill:#143a83;fill-opacity:1;stroke:#000000;stroke-width:0.264583px;stroke-linecap:butt;stroke-linejoin:miter;stroke-opacity:1"
           d="m 67.534895,221.72083 2.778125,12.30313 15.707285,-0.15167 -2.260307,-12.54833 z"
           id="path60080"
           sodipodi:nodetypes="ccccc" />
        <path
           style="fill:#143a83;fill-opacity:1;stroke:#000000;stroke-width:0.264583px;stroke-linecap:butt;stroke-linejoin:miter;stroke-opacity:1"
           d="m 86.079031,221.8192 1.749137,12.06927 15.473422,-0.57259 -1.37164,-12.08061 z"
           id="path60080-9"
           sodipodi:nodetypes="ccccc" />
        <path
           style="fill:#143a83;fill-opacity:1;stroke:#000000;stroke-width:0.264583px;stroke-linecap:butt;stroke-linejoin:miter;stroke-opacity:1"
           d="m 103.94175,221.10294 1.65367,12.76615 15.2958,-0.50177 -1.54875,-12.48219 z"
           id="path60080-2"
           sodipodi:nodetypes="ccccc" />
        <path
           style="fill:#143a83;fill-opacity:1;stroke:#000000;stroke-width:0.264583px;stroke-linecap:butt;stroke-linejoin:miter;stroke-opacity:1"
           d="m 121.40436,220.77221 1.98439,12.30313 15.4281,-0.43563 -2.3425,-12.41604 z"
           id="path60080-3"
           sodipodi:nodetypes="ccccc" />
      </g>
      <g
         id="g70117"
         transform="matrix(1.1887862,0,0,1.1887862,-33.673427,-34.942014)">
        <path
           style="fill:#2c2c2c;fill-opacity:1;stroke:#000000;stroke-width:0.303824px;stroke-linecap:butt;stroke-linejoin:miter;stroke-opacity:1"
           d="m 165.23722,191.52933 c -0.008,-0.68591 0.16648,-1.33527 0.41032,-1.97079 l 2.50656,6.45628 c -0.61623,-0.16247 -1.11172,-0.47586 -1.52558,-0.8913 -0.79784,-1.11859 -1.18874,-2.08261 -1.3913,-3.59419 z"
           id="path64943"
           sodipodi:nodetypes="ccccc" />
        <path
           style="fill:#040404;fill-opacity:1;stroke:#000000;stroke-width:0.303824px;stroke-linecap:butt;stroke-linejoin:miter;stroke-opacity:1"
           d="m 165.64754,189.55854 v -2.43059 l 1.82296,0.83551 3.34206,8.5071 -0.83553,1.67103 -1.82293,-2.12677 z"
           id="path64945"
           sodipodi:nodetypes="ccccccc" />
        <path
           style="fill:#a7a7a7;fill-opacity:1;stroke:#a7a7a7;stroke-width:0.303824px;stroke-linecap:butt;stroke-linejoin:miter;stroke-opacity:1"
           d="m 168.31042,189.27599 0.62893,1.59677 4.76284,-1.91302 c 0.30192,-0.70545 0.099,-1.22067 -0.62575,-1.46254 z"
           id="path67830"
           sodipodi:nodetypes="ccccc" />
        <path
           style="fill:#a7a7a7;fill-opacity:1;stroke:#a7a7a7;stroke-width:0.303824px;stroke-linecap:butt;stroke-linejoin:miter;stroke-opacity:1"
           d="m 169.7605,192.96882 0.6274,1.59739 4.76468,-1.90841 c 0.36843,-0.79554 0.20065,-1.32309 -0.62432,-1.46315 z"
           id="path67830-9"
           sodipodi:nodetypes="ccccc" />
      </g>
    </g>
  </g>
</svg>
