<?xml version="1.0" encoding="UTF-8" standalone="no"?>
<!-- Created with Inkscape (http://www.inkscape.org/) -->

<svg
   version="1.1"
   id="svg824"
   width="794"
   height="1123"
   viewBox="0 0 794 1123"
   sodipodi:docname="Logo Solaris.svg"
   inkscape:version="1.1 (c68e22c387, 2021-05-23)"
   inkscape:export-filename="C:\Users\usuario\Desktop\Quase tudo em uma pasta\Users\Usuario\Desktop\FATEC\Solaris logo.png"
   inkscape:export-xdpi="26.02"
   inkscape:export-ydpi="26.02"
   xmlns:inkscape="http://www.inkscape.org/namespaces/inkscape"
   xmlns:sodipodi="http://sodipodi.sourceforge.net/DTD/sodipodi-0.dtd"
   xmlns="http://www.w3.org/2000/svg"
   xmlns:svg="http://www.w3.org/2000/svg">
  <defs
     id="defs828" />
  <sodipodi:namedview
     id="namedview826"
     pagecolor="#ffffff"
     bordercolor="#999999"
     borderopacity="1"
     inkscape:pageshadow="0"
     inkscape:pageopacity="0"
     inkscape:pagecheckerboard="0"
     showgrid="false"
     inkscape:snap-others="false"
     inkscape:snap-nodes="false"
     inkscape:zoom="0.22627417"
     inkscape:cx="-4.4194174"
     inkscape:cy="974.48153"
     inkscape:window-width="1366"
     inkscape:window-height="705"
     inkscape:window-x="-8"
     inkscape:window-y="-8"
     inkscape:window-maximized="1"
     inkscape:current-layer="g830" />
  <g
     inkscape:groupmode="layer"
     inkscape:label="Image"
     id="g830">
    <path
       style="fill:none;fill-opacity:1;stroke:none;stroke-width:1.02495px;stroke-linecap:butt;stroke-linejoin:miter;stroke-opacity:1"
       d="m 298.46682,661.82913 c 7.14501,66.2886 -10.86795,122.84034 -66.79046,144.1846 l 21.46836,0.84319 c 67.40096,-53.32224 57.80017,-93.03512 65.20022,-135.75276 z"
       id="path2161"
       sodipodi:nodetypes="ccccc" />
    <path
       style="fill:#ffffff;stroke:#000000;stroke-width:5;stroke-linecap:butt;stroke-linejoin:miter;stroke-miterlimit:4;stroke-dasharray:none;stroke-opacity:1;fill-opacity:1"
       d="m 197.11503,770.70251 8.91934,37.71087 58.47124,0.33974 -7.59796,-38.05061 z"
       id="path2922" />
    <path
       style="fill:#ffffff;stroke:#000000;stroke-width:5;stroke-linecap:butt;stroke-linejoin:miter;stroke-miterlimit:4;stroke-dasharray:none;stroke-opacity:1;fill-opacity:1"
       d="m 565.7811,729.4244 1.8169,-5.77554 -0.49553,-11.04147 7.76314,3.39737 12.55314,33.29429 -3.6338,7.81396 -6.60693,-9.34278 -6.27656,-5.60567 z"
       id="path7565" />
    <path
       style="fill:#ffffff;stroke:#000000;stroke-width:5;stroke-linecap:butt;stroke-linejoin:miter;stroke-miterlimit:4;stroke-dasharray:none;stroke-opacity:1;fill-opacity:1"
       d="m 455.49193,770.92964 3.97103,34.35299 48.58669,-0.48046 -3.50385,-33.39207 z"
       id="path5302" />
    <path
       style="fill:#ffffff;stroke:#000000;stroke-width:5;stroke-linecap:butt;stroke-linejoin:miter;stroke-miterlimit:4;stroke-dasharray:none;stroke-opacity:1;fill-opacity:1"
       d="m 511.08631,771.4101 4.20463,33.15184 47.18514,-1.44138 -7.47487,-31.71046 z"
       id="path5304" />
    <path
       style="fill:none;fill-opacity:1;stroke:#000000;stroke-width:5;stroke-linecap:butt;stroke-linejoin:miter;stroke-miterlimit:4;stroke-dasharray:none;stroke-opacity:1"
       d="m 264.05146,365.71558 -98.94728,-164.37821 54.21224,-33.59923 98.01236,165.33858 z"
       id="path1232" />
    <path
       style="fill:none;fill-opacity:1;stroke:#000000;stroke-width:4.97974;stroke-linecap:butt;stroke-linejoin:miter;stroke-miterlimit:4;stroke-dasharray:none;stroke-opacity:1"
       d="M 219.50749,458.05043 49.342157,387.17995 48.533542,315.52642 244.76709,399.8908 Z"
       id="path1325"
       sodipodi:nodetypes="ccccc" />
    <path
       style="fill:none;stroke:#000000;stroke-width:4.77828;stroke-linecap:butt;stroke-linejoin:miter;stroke-miterlimit:4;stroke-dasharray:none;stroke-opacity:1;fill-opacity:1"
       d="m 220.99567,569.59195 -171.092164,0.76343 0.46229,-65.31628 171.371524,0.56289 z"
       id="path1329" />
    <path
       style="fill:none;fill-opacity:1;stroke:#000000;stroke-width:4.54121;stroke-linecap:butt;stroke-linejoin:miter;stroke-miterlimit:4;stroke-dasharray:none;stroke-opacity:1"
       d="m 732.54402,571.14984 -153.97343,0.76622 0.41604,-65.55491 154.22483,0.56497 z"
       id="path1331" />
    <path
       style="fill:none;fill-opacity:1;stroke:#000000;stroke-width:4.86379;stroke-linecap:butt;stroke-linejoin:miter;stroke-miterlimit:4;stroke-dasharray:none;stroke-opacity:1"
       d="m 732.48052,393.99202 -161.078,66.6093 -24.0413,-59.68019 187.63868,-82.14739 z"
       id="path1333"
       sodipodi:nodetypes="ccccc" />
    <path
       style="fill:none;fill-opacity:1;stroke:#000000;stroke-width:5;stroke-linecap:butt;stroke-linejoin:miter;stroke-miterlimit:4;stroke-dasharray:none;stroke-opacity:1"
       d="m 618.32808,202.05057 -96.6012,165.84759 -53.90581,-34.11669 97.85992,-165.43403 z"
       id="path1448" />
    <path
       style="fill:none;fill-opacity:1;stroke:#000000;stroke-width:5;stroke-linecap:butt;stroke-linejoin:miter;stroke-miterlimit:4;stroke-dasharray:none;stroke-opacity:1"
       d="m 425.24324,140.35866 0.20074,193.32697 -63.29176,-0.70902 1.0854,-193.63883 z"
       id="path1450" />
    <path
       style="fill:#ffffff;fill-opacity:1;stroke:#000000;stroke-width:5.96159;stroke-linecap:round;stroke-linejoin:round;stroke-miterlimit:4;stroke-dasharray:none;stroke-opacity:1;paint-order:fill markers stroke"
       id="path1480"
       sodipodi:type="arc"
       sodipodi:cx="395.69296"
       sodipodi:cy="527.33575"
       sodipodi:rx="146.68842"
       sodipodi:ry="150.37825"
       sodipodi:start="0"
       sodipodi:end="6.2722595"
       sodipodi:open="true"
       sodipodi:arc-type="arc"
       d="M 542.38138,527.33575 A 146.68842,150.37825 0 0 1 396.09363,677.71344 146.68842,150.37825 0 0 1 249.00674,528.15725 146.68842,150.37825 0 0 1 394.49096,376.96255 146.68842,150.37825 0 0 1 542.37262,525.69278" />
    <path
       style="fill:#ffffff;stroke:#000000;stroke-width:5;stroke-linecap:butt;stroke-linejoin:miter;stroke-miterlimit:4;stroke-dasharray:none;stroke-opacity:1;fill-opacity:1"
       d="m 262.98737,771.18297 8.91934,37.71087 58.47124,0.33974 -7.59797,-38.05061 z"
       id="path3006" />
    <path
       style="fill:none;fill-opacity:1;stroke:#000000;stroke-width:5;stroke-linecap:butt;stroke-linejoin:miter;stroke-miterlimit:4;stroke-dasharray:none;stroke-opacity:1"
       d="m 314.89812,652.39439 c 0.90787,63.27502 -14.95867,88.29898 -51.05213,117.59996 l 19.65856,-0.22882 c 23.68353,-16.0698 54.51885,-55.6102 50.40491,-103.95109 z"
       id="path26614"
       sodipodi:nodetypes="ccccc" />
    <path
       style="fill:#ffffff;stroke:#000000;stroke-width:5;stroke-linecap:butt;stroke-linejoin:miter;stroke-miterlimit:4;stroke-dasharray:none;stroke-opacity:1;fill-opacity:1"
       d="m 330.75496,771.89056 4.67179,35.55415 56.06156,-1.44138 -4.67179,-34.59323 z"
       id="path5298" />
    <path
       style="fill:#ffffff;stroke:#000000;stroke-width:5;stroke-linecap:butt;stroke-linejoin:miter;stroke-miterlimit:4;stroke-dasharray:none;stroke-opacity:1;fill-opacity:1"
       d="m 394.29139,770.92964 3.73744,35.55414 54.66003,-0.48045 -5.13898,-35.55416 z"
       id="path5300" />
    <path
       style="fill:#ffffff;stroke:#000000;stroke-width:5;stroke-linecap:butt;stroke-linejoin:miter;stroke-miterlimit:4;stroke-dasharray:none;stroke-opacity:1;fill-opacity:1"
       d="m 207.88669,816.09301 10.74514,41.80015 57.4631,0.96092 -8.87641,-43.24153 z"
       id="path5306" />
    <path
       style="fill:#ffffff;stroke:#000000;stroke-width:5;stroke-linecap:butt;stroke-linejoin:miter;stroke-miterlimit:4;stroke-dasharray:none;stroke-opacity:1;fill-opacity:1"
       d="m 220.50055,867.50239 10.74513,48.5266 h 56.06156 l -9.81077,-48.5266 z"
       id="path5308" />
    <path
       style="fill:#ffffff;stroke:#000000;stroke-width:5;stroke-linecap:butt;stroke-linejoin:miter;stroke-miterlimit:4;stroke-dasharray:none;stroke-opacity:1;fill-opacity:1"
       d="m 274.69339,815.13209 9.3436,44.20245 52.32412,-1.44138 -7.47487,-43.24153 z"
       id="path5310" />
    <path
       style="fill:#ffffff;stroke:#000000;stroke-width:5;stroke-linecap:butt;stroke-linejoin:miter;stroke-miterlimit:4;stroke-dasharray:none;stroke-opacity:1;fill-opacity:1"
       d="m 285.9057,867.98285 9.3436,48.04614 50.92259,-0.96092 -7.47488,-48.52661 z"
       id="path5312" />
    <path
       style="fill:#ffffff;stroke:#000000;stroke-width:5;stroke-linecap:butt;stroke-linejoin:miter;stroke-miterlimit:4;stroke-dasharray:none;stroke-opacity:1;fill-opacity:1"
       d="m 337.29547,816.09301 5.60616,42.76107 53.72567,-1.44138 -5.13899,-44.68291 z"
       id="path5314" />
    <path
       style="fill:#ffffff;stroke:#000000;stroke-width:5;stroke-linecap:butt;stroke-linejoin:miter;stroke-miterlimit:4;stroke-dasharray:none;stroke-opacity:1;fill-opacity:1"
       d="m 343.36881,867.02193 8.01778,47.7293 51.20362,0.33973 -3.96416,-49.26193 z"
       id="path5316" />
    <path
       style="fill:#ffffff;stroke:#000000;stroke-width:5;stroke-linecap:butt;stroke-linejoin:miter;stroke-miterlimit:4;stroke-dasharray:none;stroke-opacity:1;fill-opacity:1"
       d="m 404.24193,865.82903 5.28554,49.60167 h 51.20361 l -4.29449,-51.97984 z"
       id="path5318" />
    <path
       style="fill:#ffffff;stroke:#000000;stroke-width:5;stroke-linecap:butt;stroke-linejoin:miter;stroke-miterlimit:4;stroke-dasharray:none;stroke-opacity:1;fill-opacity:1"
       d="m 450.49036,812.15049 6.27658,44.84535 -52.85535,1.35896 -5.28554,-45.86457 z"
       id="path5320" />
    <path
       style="fill:#ffffff;stroke:#000000;stroke-width:5;stroke-linecap:butt;stroke-linejoin:miter;stroke-miterlimit:4;stroke-dasharray:none;stroke-opacity:1;fill-opacity:1"
       d="m 518.56119,861.73685 6.54052,53.33122 h -58.39746 l -3.27026,-51.88983 z"
       id="path5322" />
    <path
       style="fill:#ffffff;stroke:#000000;stroke-width:5;stroke-linecap:butt;stroke-linejoin:miter;stroke-miterlimit:4;stroke-dasharray:none;stroke-opacity:1;fill-opacity:1"
       d="m 458.76219,811.2884 6.54052,45.16338 51.85694,-0.96092 -7.94205,-45.16338 z"
       id="path5324" />
    <path
       style="fill:#ffffff;stroke:#000000;stroke-width:5;stroke-linecap:butt;stroke-linejoin:miter;stroke-miterlimit:4;stroke-dasharray:none;stroke-opacity:1;fill-opacity:1"
       d="m 523.70017,860.77593 7.94205,54.29214 56.52874,-0.48046 -13.08103,-55.73353 z"
       id="path5326" />
    <path
       style="fill:#ffffff;stroke:#000000;stroke-width:5;stroke-linecap:butt;stroke-linejoin:miter;stroke-miterlimit:4;stroke-dasharray:none;stroke-opacity:1;fill-opacity:1"
       d="m 517.62683,810.32748 6.07334,45.16338 50.4554,-1.44139 -10.74513,-44.20245 z"
       id="path5328" />
    <path
       style="fill:#ffffff;fill-opacity:1;stroke:#000000;stroke-width:5;stroke-linecap:butt;stroke-linejoin:miter;stroke-miterlimit:4;stroke-dasharray:none;stroke-opacity:1"
       d="m 283.56981,916.02899 c 19.28947,29.79787 188.62029,39.52679 235.45856,0 h 18.34298 C 518.15511,933.672 506.99399,953.91338 396.64398,954.1608 332.55484,951.71814 290.57719,937.30708 259.88076,916.78966 Z"
       id="path5538"
       sodipodi:nodetypes="cccccc" />
    <path
       style="fill:#ffffff;stroke:#000000;stroke-width:5;stroke-linecap:butt;stroke-linejoin:miter;stroke-miterlimit:4;stroke-dasharray:none;stroke-opacity:1;fill-opacity:1"
       d="m 495.90298,770.44918 c 9.24046,-18.62221 28.39093,-30.7772 68.909,-40.35876 l 4.6718,11.53107 c -18.96355,2.44519 -44.87269,4.7111 -58.39747,29.78861 z"
       id="path6447"
       sodipodi:nodetypes="ccccc" />
    <path
       style="fill:#ffffff;fill-opacity:1;stroke:#000000;stroke-width:5;stroke-linecap:butt;stroke-linejoin:miter;stroke-miterlimit:4;stroke-dasharray:none;stroke-opacity:1"
       d="m 583.84956,734.89503 c 5.61249,-1.64488 20.01609,-9.92281 20.91364,-3.47717 0.97364,5.63318 -16.46855,9.1614 -18.11056,10.20363 z"
       id="path14218"
       sodipodi:nodetypes="cccc" />
    <path
       style="fill:#ffffff;fill-opacity:1;stroke:#000000;stroke-width:5;stroke-linecap:butt;stroke-linejoin:miter;stroke-miterlimit:4;stroke-dasharray:none;stroke-opacity:1"
       d="m 578.0768,720.61148 c 5.61249,-1.64488 20.01609,-9.92281 20.91364,-3.47716 0.97364,5.63317 -16.46855,9.16139 -18.11056,10.20362 z"
       id="path14380"
       sodipodi:nodetypes="cccc" />
    <path
       style="fill:#ffffff;fill-opacity:1;stroke:none;stroke-width:1.0085px;stroke-linecap:butt;stroke-linejoin:miter;stroke-opacity:1"
       d="m 315.74993,647.28779 1.55453,13.153 13.9908,10.33448 1.55452,-12.44837 z"
       id="path14956" />
  </g>
</svg>
